<svg viewBox="0 0 800 470" class="diagram" aria-hidden="true" xmlns="http://www.w3.org/2000/svg"><g fill="none" stroke="rgba(248,244,242,0.28)" stroke-width="3" stroke-linecap="round" stroke-dasharray="2 14"><line x1="206" y1="200" x2="364" y2="200"/><line x1="418" y1="200" x2="592" y2="90"/><line x1="418" y1="200" x2="592" y2="170"/><line x1="418" y1="200" x2="592" y2="250"/><line x1="418" y1="200" x2="592" y2="330"/></g><g fill="none" stroke="#ea0000" stroke-width="5" stroke-linecap="round"><line x1="206" y1="200" x2="364" y2="200" stroke-dasharray="14 900" style="animation:cosloopS 4.8s linear infinite;animation-delay:0s"/><line x1="418" y1="200" x2="592" y2="90" stroke-dasharray="14 900" style="animation:cosloopS 4.8s linear infinite;animation-delay:1.2s"/><line x1="418" y1="200" x2="592" y2="170" stroke-dasharray="14 900" style="animation:cosloopS 4.8s linear infinite;animation-delay:1.2s"/><line x1="418" y1="200" x2="592" y2="250" stroke-dasharray="14 900" style="animation:cosloopS 4.8s linear infinite;animation-delay:1.2s"/><line x1="418" y1="200" x2="592" y2="330" stroke-dasharray="14 900" style="animation:cosloopS 4.8s linear infinite;animation-delay:1.2s"/></g><circle cx="180" cy="200" r="40" fill="#1e1818" stroke="rgba(248,244,242,0.14)" stroke-width="2"/><circle cx="180" cy="200" r="40" fill="rgba(248,244,242,0.13)"/><circle cx="180" cy="200" r="26" fill="#1e1818" stroke="#eee8e6" stroke-width="4"/><circle cx="180" cy="200" r="8" fill="#ea0000"/><circle cx="390" cy="200" r="26" fill="none" stroke="#9e9493" stroke-width="3" stroke-dasharray="5 8"/><g><circle cx="620" cy="90" r="40" fill="#1e1818" stroke="rgba(248,244,242,0.14)" stroke-width="2"/><circle cx="620" cy="90" r="40" fill="rgba(234,0,0,0.14)"/><circle cx="620" cy="90" r="26" fill="#1e1818" stroke="#ea0000" stroke-width="4"/><path d="M611,81 L629,99 M629,81 L611,99" stroke="#ea0000" stroke-width="4" stroke-linecap="round"/></g><g><circle cx="620" cy="170" r="40" fill="#1e1818" stroke="rgba(248,244,242,0.14)" stroke-width="2"/><circle cx="620" cy="170" r="40" fill="rgba(234,0,0,0.14)"/><circle cx="620" cy="170" r="26" fill="#1e1818" stroke="#ea0000" stroke-width="4"/><path d="M611,161 L629,179 M629,161 L611,179" stroke="#ea0000" stroke-width="4" stroke-linecap="round"/></g><g><circle cx="620" cy="250" r="40" fill="#1e1818" stroke="rgba(248,244,242,0.14)" stroke-width="2"/><circle cx="620" cy="250" r="40" fill="rgba(234,0,0,0.14)"/><circle cx="620" cy="250" r="26" fill="#1e1818" stroke="#ea0000" stroke-width="4"/><path d="M611,241 L629,259 M629,241 L611,259" stroke="#ea0000" stroke-width="4" stroke-linecap="round"/></g><g><circle cx="620" cy="330" r="40" fill="#1e1818" stroke="rgba(248,244,242,0.14)" stroke-width="2"/><circle cx="620" cy="330" r="40" fill="rgba(234,0,0,0.14)"/><circle cx="620" cy="330" r="26" fill="#1e1818" stroke="#ea0000" stroke-width="4"/><path d="M611,321 L629,339 M629,321 L611,339" stroke="#ea0000" stroke-width="4" stroke-linecap="round"/></g><text x="180" y="130" text-anchor="middle" style="font-weight:500;font-size:20px" fill="#eee8e6">Image</text><text x="390" y="266" text-anchor="middle" style="font-weight:500;font-size:20px" fill="#9e9493">No review</text><text x="620" y="420" text-anchor="middle" style="font-weight:500;font-size:20px" fill="#ea0000">4x more expensive</text></svg>